<?xml version="1.0" encoding="UTF-8"?>
<svg width="100px" height="61px" viewBox="0 0 100 61" version="1.1" xmlns="http://www.w3.org/2000/svg" xmlns:xlink="http://www.w3.org/1999/xlink">
    <title>Group 36</title>
    <defs>
        <polygon id="path-1" points="0.158626761 0.0527464789 5.66073944 0.0527464789 5.66073944 5.98591549 0.158626761 5.98591549"></polygon>
    </defs>
    <g id="Page-1" stroke="none" stroke-width="1" fill="none" fill-rule="evenodd">
        <g id="D_Gibson---Home_R6" transform="translate(-344.000000, -6097.000000)">
            <g id="Footer" transform="translate(-96.000000, 5443.000000)">
                <g id="Group-36" transform="translate(440.000000, 654.000000)">
                    <polygon id="Fill-1" fill="#FEFEFE" points="25.9380634 53.9271831 25.9380634 59.6574648 27.3324296 59.6574648 27.3324296 57.5275352 29.0820775 57.5275352 29.0820775 56.3359859 27.3324296 56.3359859 27.3324296 55.1440845 29.437007 55.1440845 29.437007 53.9271831"></polygon>
                    <g id="Group-35" transform="translate(0.000000, 0.277113)">
                        <path d="M32.9361268,53.5738732 C34.6600704,53.5738732 35.9280282,54.841831 35.9280282,56.4897183 C35.9280282,58.1633099 34.6600704,59.4816197 32.9361268,59.4816197 C31.2121831,59.4816197 29.9442254,58.1633099 29.9442254,56.4897183 C29.9442254,54.841831 31.2121831,53.5738732 32.9361268,53.5738732 M32.9361268,58.1883099 C33.7980986,58.1883099 34.4826056,57.4534507 34.4826056,56.4897183 C34.4826056,55.5516901 33.7980986,54.841831 32.9361268,54.841831 C32.0741549,54.841831 31.3892958,55.5516901 31.3892958,56.4897183 C31.3892958,57.4534507 32.0741549,58.1883099 32.9361268,58.1883099" id="Fill-2" fill="#FEFEFE"></path>
                        <path d="M36.8660915,53.6502113 L38.8439085,53.6502113 C39.427007,53.6502113 39.7058803,53.7009155 39.9594014,53.7766197 C40.6185563,54.030493 41.0241901,54.6135915 41.0241901,55.4248592 C41.0241901,56.033662 40.7453169,56.6928169 40.1622183,56.9716901 L40.1622183,56.9970423 C40.1622183,56.9970423 40.2382746,57.0984507 40.3903873,57.3519718 L41.5058803,59.3547887 L39.9594014,59.3547887 L38.9453169,57.4280282 L38.2858099,57.4280282 L38.2858099,59.3547887 L36.8914437,59.3547887 L36.8914437,53.6502113 L36.8660915,53.6502113 Z M38.8689085,56.2364789 C39.3255986,56.2364789 39.6044718,55.9826056 39.6044718,55.5262676 C39.6044718,55.0952817 39.4523592,54.8417606 38.7425,54.8417606 L38.2604577,54.8417606 L38.2604577,56.2364789 L38.8689085,56.2364789 Z" id="Fill-4" fill="#FEFEFE"></path>
                        <polygon id="Fill-6" fill="#FEFEFE" points="44.1683099 53.6502113 47.7433099 53.6502113 47.7433099 54.8671127 45.5626761 54.8671127 45.5626761 55.9065493 47.2869718 55.9065493 47.2869718 57.0984507 45.5626761 57.0984507 45.5626761 58.1632394 47.8447183 58.1632394 47.8447183 59.3801408 44.1683099 59.3801408"></polygon>
                        <path d="M48.1237324,53.6502113 L49.6448592,53.6502113 L50.6589437,56.8956338 C50.7603521,57.2505634 50.8874648,57.8083099 50.8874648,57.8083099 L50.9128169,57.8083099 C50.9128169,57.8083099 51.0142254,57.2505634 51.1156338,56.8956338 L52.1297183,53.6502113 L53.6258451,53.6502113 L51.6226761,59.3547887 L50.1776056,59.3547887 L48.1490845,53.6502113 L48.1237324,53.6502113 Z" id="Fill-8" fill="#FEFEFE"></path>
                        <polygon id="Fill-10" fill="#FEFEFE" points="54.2341197 53.6502113 57.8091197 53.6502113 57.8091197 54.8671127 55.628838 54.8671127 55.628838 55.9065493 57.3784859 55.9065493 57.3784859 57.0984507 55.628838 57.0984507 55.628838 58.1632394 57.9362324 58.1632394 57.9362324 59.3801408 54.2341197 59.3801408"></polygon>
                        <path d="M58.9247183,53.6502113 L60.9025352,53.6502113 C61.4856338,53.6502113 61.764507,53.7009155 62.0180282,53.7766197 C62.6771831,54.030493 63.083169,54.6135915 63.083169,55.4248592 C63.083169,56.033662 62.8042958,56.6928169 62.2208451,56.9716901 L62.2208451,56.9970423 C62.2208451,56.9970423 62.2969014,57.0984507 62.4493662,57.3519718 L63.5648592,59.3547887 L62.0180282,59.3547887 L61.0039437,57.4280282 L60.3447887,57.4280282 L60.3447887,59.3547887 L58.9500704,59.3547887 L58.9500704,53.6502113 L58.9247183,53.6502113 Z M60.9278873,56.2364789 C61.3842254,56.2364789 61.6630986,55.9826056 61.6630986,55.5262676 C61.6630986,55.0952817 61.511338,54.8417606 60.8011268,54.8417606 L60.3194366,54.8417606 L60.3194366,56.2364789 L60.9278873,56.2364789 Z" id="Fill-12" fill="#FEFEFE"></path>
                        <path d="M65.4663028,57.0220775 L63.5902465,53.6502465 L65.1874296,53.6502465 L65.8465845,55.0192606 C66.0244014,55.3995423 66.2018662,55.8305282 66.2018662,55.8305282 L66.2268662,55.8305282 C66.2268662,55.8305282 66.379331,55.3995423 66.5821479,55.0192606 L67.2159507,53.6502465 L68.8134859,53.6502465 L66.9370775,57.0220775 L66.9370775,59.3548239 L65.5427113,59.3548239 L65.5427113,57.0220775 L65.4663028,57.0220775 Z" id="Fill-14" fill="#FEFEFE"></path>
                        <path d="M71.526162,57.5801761 C71.526162,57.5801761 72.1853169,58.1632746 72.8955282,58.1632746 C73.1744014,58.1632746 73.5039789,58.0618662 73.5039789,57.7065845 C73.5039789,57.0220775 70.9430634,57.0474296 70.9430634,55.2981338 C70.9430634,54.2333451 71.8303873,53.548838 72.9712324,53.548838 C74.188838,53.548838 74.7969366,54.1826408 74.7969366,54.1826408 L74.213838,55.3234859 C74.213838,55.3234859 73.6307394,54.8160915 72.9462324,54.8160915 C72.667007,54.8160915 72.3377817,54.9432042 72.3377817,55.2727817 C72.3377817,55.9826408 74.8983451,55.8562324 74.8983451,57.6562324 C74.8983451,58.5942606 74.1631338,59.4308803 72.8955282,59.4308803 C71.5515141,59.4308803 70.8163028,58.6196127 70.8163028,58.6196127 L71.5515141,57.5548239 L71.526162,57.5801761 Z" id="Fill-16" fill="#FEFEFE"></path>
                        <polygon id="Fill-18" fill="#FEFEFE" points="76.926831 54.8671127 75.2028873 54.8671127 75.2028873 53.6502113 80.0708451 53.6502113 80.0708451 54.8671127 78.3215493 54.8671127 78.3215493 59.3801408 76.926831 59.3801408"></polygon>
                        <path d="M83.3164437,58.1884507 L81.5414437,58.1884507 L81.1865141,59.3803521 L79.7414437,59.3803521 L81.6939085,53.6754225 L83.1639789,53.6754225 L85.1164437,59.3803521 L83.6713732,59.3803521 L83.3164437,58.1884507 Z M82.4287676,54.9683803 C82.4287676,54.9683803 82.302007,55.6021831 82.2005986,55.9574648 L81.8713732,57.0729577 L82.9865141,57.0729577 L82.6572887,55.9574648 C82.5558803,55.6021831 82.4287676,54.9683803 82.4287676,54.9683803 L82.4034155,54.9683803 L82.4287676,54.9683803 Z" id="Fill-20" fill="#FEFEFE"></path>
                        <g id="Group-24" transform="translate(85.211268, 53.521127)">
                            <mask id="mask-2" fill="white">
                                <use xlink:href="#path-1"></use>
                            </mask>
                            <g id="Clip-23"></g>
                            <path d="M3.12517606,0.0527464789 C4.5959507,0.0527464789 5.33151408,0.813309859 5.33151408,0.813309859 L4.67200704,1.85309859 C4.67200704,1.85309859 4.08855634,1.32070423 3.27764085,1.32070423 C2.08573944,1.32070423 1.6040493,2.08126761 1.6040493,2.94323944 C1.6040493,4.03373239 2.36461268,4.6671831 3.25193662,4.6671831 C3.91109155,4.6671831 4.41848592,4.26190141 4.41848592,4.26190141 L4.41848592,3.83056338 L3.6068662,3.83056338 L3.6068662,2.63901408 L5.66073944,2.63901408 L5.66073944,5.85908451 L4.49454225,5.85908451 L4.49454225,5.70732394 L4.49454225,5.47880282 L4.46883803,5.47880282 C4.46883803,5.47880282 3.91109155,5.98619718 2.97306338,5.98619718 C1.50264085,5.98619718 0.158626761,4.89570423 0.158626761,3.01964789 C0.158626761,1.37140845 1.40123239,0.0780985916 3.15052817,0.0780985916 L3.12517606,0.0527464789 Z" id="Fill-22" fill="#FEFEFE" mask="url(#mask-2)"></path>
                        </g>
                        <polygon id="Fill-25" fill="#FEFEFE" points="91.8610211 53.6502113 95.4613732 53.6502113 95.4613732 54.8671127 93.2807394 54.8671127 93.2807394 55.9065493 95.0050352 55.9065493 95.0050352 57.0984507 93.2807394 57.0984507 93.2807394 58.1632394 95.5627817 58.1632394 95.5627817 59.3801408 91.8610211 59.3801408"></polygon>
                        <path d="M93.8894366,0.582112676 C93.8894366,0.582112676 90.0859155,1.74866197 88.184507,2.35711268 C86.2827465,2.94021127 86.4348592,4.13176056 86.4348592,4.13176056 C86.4348592,4.13176056 86.4098592,4.68985915 86.4098592,5.50112676 C86.0292254,6.08422535 85.1419014,6.48985915 84.9137324,6.56591549 L84.9137324,6.36309859 C84.9137324,6.03352113 84.7109155,3.70077465 82.9612676,4.23316901 C81.2369718,4.76556338 80.0961268,6.56591549 79.3355634,6.76873239 L79.0820423,6.87014085 L79.0820423,5.45042254 L76.0140845,6.41380282 L76.0140845,12.4229577 C74.6704225,14.045493 74.6193662,14.3500704 74.1376761,14.4764789 C74.0873239,12.4990141 74.2137324,9.9634507 74.0873239,9.00007042 C73.884507,7.40253521 72.2109155,7.58035211 71.7288732,7.73246479 C71.2471831,7.88422535 70.4105634,8.29021127 70.4866197,8.54373239 C70.5626761,8.79725352 71.0954225,9.20288732 71.0954225,9.20288732 C71.0954225,9.20288732 71.1457746,15.4148592 71.1207746,16.5810563 C71.0954225,17.7472535 70.9683099,17.9754225 69.9288732,18.28 C68.8894366,18.6095775 68.7880282,17.3162676 68.7880282,17.3162676 C68.7880282,17.3162676 68.7626761,13.2849296 68.7626761,11.8398592 C68.7369718,10.4197887 69.2190141,10.3690845 69.2190141,10.3690845 C70.4362676,9.81133803 70.2838028,9.32964789 70.2330986,9.1521831 C70.1823944,8.97471831 69.9542254,8.08704225 67.85,8.7465493 C65.7450704,9.40570423 65.1873239,11.2821127 64.6552817,12.1694366 C64.4778169,12.4483099 63.7422535,12.8285915 63.6408451,12.93 C63.5647887,11.6623944 62.7028169,10.7493662 61.8151408,10.8761268 C59.7362676,11.2057042 58.3669014,13.3356338 57.4288732,13.6398592 L57.4035211,1.13985915 L54.0566901,2.17964789 C54.0566901,2.17964789 54.0566901,15.8965493 54.0820423,18.6349296 C54.1077465,20.6888028 52.7887324,21.0437324 52.1042254,21.0437324 L52.1042254,15.2120423 C52.1042254,15.2120423 52.2056338,13.6909155 50.684507,13.8680282 C50.684507,13.8680282 48.6306338,14.4514789 48.3771127,15.0599296 C48.1235915,15.6683803 48.7573944,15.6683803 48.7573944,15.6683803 L48.7827465,25.1764789 L47.3883803,25.6074648 L47.3883803,15.820493 L43.5852113,16.9866901 L43.6105634,20.0546479 C43.0017606,20.9930282 41.2271127,23.5792958 40.8975352,23.9845775 C40.4919014,24.4919718 40.4411972,23.8835211 40.4411972,23.8835211 L40.4411972,18.0261268 L37.0183099,19.0912676 C37.1704225,25.4553521 35.9785211,26.5711972 35.5475352,26.7483099 C35.268662,26.8500704 34.6602113,27.0021831 34.4827465,26.9764789 C34.4827465,24.4666197 34.5080986,21.195493 34.5080986,21.195493 C34.5080986,21.195493 34.5334507,19.6997183 32.9105634,19.8771831 C32.9105634,19.8771831 31.0091549,20.4099296 30.7556338,21.0183803 C30.5017606,21.626831 31.1359155,21.626831 31.1359155,21.626831 L31.1359155,30.8560563 L29.7411972,31.2870423 L29.8176056,21.4493662 L26.0647887,22.6155634 L25.9887324,30.6021831 C23.7070423,33.0109859 20.5626761,34.151831 20.5626761,34.151831 C17.165493,35.8511268 10.1672535,35.3690845 9.10246479,29.8669718 L23.3517606,25.2271831 L23.681338,23.401831 L8.89964789,28.1430282 C8.26584507,22.083169 11.181338,19.3701408 14.1225352,18.4574648 C17.190493,17.5194366 22.0334507,18.8884507 22.0334507,18.8884507 L23.5292254,16.7838732 C18.9401408,14.6289437 13.6408451,16.1500704 13.6408451,16.1500704 C8.26584507,17.823662 6.18661972,20.3842254 4.89330986,23.858169 C3.9806338,26.2666197 3.85387324,28.5740141 3.92992958,29.7405634 L0.329577465,30.8560563 L0,32.6817606 L4.23415493,31.3627465 C7.30211268,40.4402113 13.6408451,39.1469014 16.9373239,38.1328169 C20.6133803,37.0173239 25.3042254,33.7465493 25.9887324,33.2898592 L25.9887324,45.3588732 L29.7411972,44.1926761 L29.7411972,32.8845775 L33.4940141,31.6419718 C33.4940141,31.6419718 34.5080986,31.4138028 34.5080986,30.1208451 L34.5080986,29.2078169 L36.9676056,27.9909155 C36.9676056,27.9909155 37.0690141,29.5373944 37.5253521,29.9687324 C38.2859155,30.6785915 39.1225352,29.8669718 39.7566901,29.2838732 C40.2637324,28.8275352 42.7232394,25.201831 43.6359155,23.858169 L43.6105634,39.73 L47.4137324,38.5641549 L47.4137324,27.2303521 L51.2422535,26.0384507 C51.2422535,26.0384507 52.1295775,25.7342254 52.1295775,24.0859859 L52.1295775,23.401831 C53.0933099,22.8944366 54.0820423,22.083169 54.0820423,22.083169 L54.0820423,25.1004225 L57.4035211,24.0859859 L57.4035211,16.8599296 C59.5077465,14.045493 59.9897887,15.8965493 59.9897887,15.8965493 L60.0151408,23.198662 L63.6408451,22.0578169 C63.6408451,22.0578169 63.615493,18.28 63.6408451,15.5669718 C64.5538732,14.3750704 65.4919014,14.9585211 65.4919014,14.9585211 L65.4919014,17.6208451 C65.5933099,20.6127465 67.3933099,20.8659155 67.3933099,20.8659155 C67.3933099,20.8659155 67.9764085,20.739507 70.6894366,19.851831 C73.4785211,18.9391549 73.9348592,18.9391549 74.1376761,17.4433803 C74.1633803,17.2405634 74.1887324,16.9109859 74.1887324,16.5303521 C75.4309859,16.1754225 75.684507,15.2627465 76.0901408,14.9078169 L76.0647887,18.1278873 L79.1327465,17.1388028 L79.1327465,10.3690845 C79.4880282,10.0141549 80.1214789,9.45640845 80.4514085,9.20288732 C81.0091549,8.77190141 81.3894366,9.00007042 81.3894366,9.00007042 C81.3894366,9.00007042 81.3894366,9.17753521 81.4144366,10.8511268 C81.4401408,12.5243662 81.4401408,26.5961972 81.4401408,26.5961972 C81.4401408,26.5961972 81.3894366,27.661338 82.2260563,27.4078169 C83.0376761,27.1539437 85.6996479,26.2919718 85.6996479,26.2919718 C85.6996479,26.2919718 86.6123239,26.0130986 86.9165493,24.8976056 C87.2211268,23.7564085 87.5757042,21.6014789 87.5757042,21.6014789 C87.5757042,21.6014789 87.6771127,20.9676761 87.1193662,21.1447887 C86.5616197,21.3226056 85.9785211,21.5000704 85.9785211,21.5000704 L85.5221831,23.1479577 L84.9897887,23.3004225 C84.9897887,23.3004225 84.9897887,13.7159155 84.9390845,8.89866197 C85.268662,8.54373239 86.1306338,7.93492958 86.4098592,7.68176056 C86.4348592,9.22823944 86.384507,10.8511268 86.384507,12.0173239 C86.4098592,14.6289437 88.5394366,14.0961972 88.5394366,14.0961972 L95.4866197,11.9159155 L95.4866197,9.07612676 C94.3961268,9.40570423 93.0017606,9.88739437 93.0017606,9.88739437 C92.8246479,10.4451408 92.6975352,11.3328169 91.1764085,11.7891549 C89.6802817,12.245493 90.2633803,8.77190141 90.2633803,8.77190141 L95.5376761,7.14901408 C95.5376761,7.14901408 95.5626761,3.19373239 95.5119718,1.67260563 C95.4612676,0.151126761 93.8640845,0.632816901 93.8640845,0.632816901 L93.8894366,0.582112676 Z M91.8355634,3.85288732 L91.8355634,6.56591549 C91.8355634,6.71802817 91.6834507,6.79408451 91.6834507,6.79408451 C91.6834507,6.79408451 90.8214789,7.04760563 90.618662,7.09830986 C90.4158451,7.14901408 90.2887324,6.9715493 90.2887324,6.9715493 L90.2887324,4.13176056 C90.2887324,4.005 90.4661972,3.97964789 90.4661972,3.97964789 C90.4661972,3.97964789 91.5056338,3.67542254 91.6580986,3.62471831 C91.8102113,3.57401408 91.8355634,3.82753521 91.8355634,3.82753521 L91.8355634,3.85288732 Z" id="Fill-27" fill="#FEFEFE"></path>
                        <path d="M38.8438028,14.9330986 C39.9846479,14.578169 40.6188028,13.3609155 40.2635211,12.2200704 C39.9085915,11.0792254 38.6916901,10.4450704 37.5508451,10.8003521 C36.4096479,11.1552817 35.7758451,12.3721831 36.1307746,13.5130282 C36.4857042,14.6542254 37.7026056,15.2880282 38.8438028,14.9330986" id="Fill-29" fill="#FEFEFE"></path>
                        <path d="M99.9998239,1.74848592 L99.9998239,1.62172535 C99.9744718,0.734401408 99.2392606,0.0752464789 98.3772887,0.0752464789 C97.4896127,0.0752464789 96.7544014,0.759753521 96.7544014,1.67242958 C96.7544014,2.61045775 97.4896127,3.26961268 98.3772887,3.26961268 C99.2392606,3.26961268 99.9744718,2.61045775 99.9998239,1.7231338 L99.9998239,1.74848592 Z M98.3772887,3.01644366 C97.6420775,3.01644366 97.0839789,2.45834507 97.0839789,1.67242958 C97.0839789,0.911866197 97.6670775,0.354119718 98.3772887,0.354119718 C99.1121479,0.354119718 99.6702465,0.93721831 99.6702465,1.67242958 C99.6702465,2.43299296 99.0871479,3.01644366 98.3772887,3.01644366 L98.3772887,3.01644366 Z" id="Fill-31" fill="#FEFEFE"></path>
                        <path d="M99.1123239,1.2921831 C99.1123239,0.937253521 98.884507,0.759788732 98.453169,0.759788732 L97.7433099,0.759788732 L97.7433099,2.61049296 L98.0221831,2.61049296 L98.0221831,1.79922535 L98.3517606,1.79922535 L98.8334507,2.61049296 L99.1376761,2.61049296 L98.6056338,1.79922535 C98.884507,1.77387324 99.0873239,1.62176056 99.0873239,1.2921831 L99.1123239,1.2921831 Z M98.0475352,1.57105634 L98.0475352,0.987957746 L98.4278169,0.987957746 C98.6306338,0.987957746 98.8334507,1.03866197 98.8334507,1.26683099 C98.8334507,1.54570423 98.6306338,1.57105634 98.3771127,1.57105634 L98.0475352,1.57105634 Z" id="Fill-33" fill="#FEFEFE"></path>
                    </g>
                </g>
            </g>
        </g>
    </g>
</svg>