<?xml version="1.0" encoding="UTF-8"?>
<svg width="152px" height="39px" viewBox="0 0 152 39" version="1.1" xmlns="http://www.w3.org/2000/svg" xmlns:xlink="http://www.w3.org/1999/xlink">
    <title>Steinberger_White_revision-1-01</title>
    <g id="Page-1" stroke="none" stroke-width="1" fill="none" fill-rule="evenodd" fill-opacity="0.08">
        <g id="D_Gibson---Home_R6" transform="translate(-624.000000, -6109.000000)" fill="#FFFFFF" fill-rule="nonzero" stroke="#FFFFFF">
            <g id="Footer" transform="translate(-96.000000, 5443.000000)">
                <g id="Steinberger_White_revision-1-01" transform="translate(721.000000, 667.000000)">
                    <path d="M146.94533,28.8692793 C147.676786,28.879079 148.381753,28.5955342 148.902539,28.081812 C149.423325,27.5680898 149.716401,26.86706 149.716401,26.1355353 L149.716401,2.76082005 C149.711886,2.03072316 149.417284,1.33237592 148.897505,0.819646646 C148.377726,0.306917369 147.675421,0.0218790748 146.94533,0.0271203085 L2.98633257,0.0271203085 C2.25249365,0.0181464505 1.54578399,0.304431027 1.0252367,0.821765069 C0.504689399,1.33909911 0.214034441,2.04402257 0.218624,2.77790433 L0.218624,26.1218679 C0.218624,26.8527923 0.51129871,27.5532937 1.03134051,28.0669152 C1.55138232,28.5805368 2.25546522,28.8644896 2.98633257,28.8553531 L146.94533,28.8692793 Z" id="path2" stroke-width="0.69"></path>
                    <path d="M11.6173121,6.98405467 C15.977221,6.98405467 17.1560364,9.80979499 17.1799544,11.5387244 L14.3166287,11.5387244 C14.238041,10.9031891 14.0091116,9.40318907 11.3952164,9.40318907 C10.2676538,9.40318907 8.90774487,9.80979499 8.90774487,11.1116173 C8.90774487,12.2050114 9.83029613,12.4578588 10.4214123,12.5876993 L13.8792711,13.4248292 C15.8302961,13.9066059 17.5968109,14.6924829 17.5968109,17.214123 C17.5968109,21.4646925 13.2403189,21.8439636 11.9829157,21.8439636 C6.77904328,21.8439636 5.88382688,18.8678815 5.88382688,17.1116173 L8.77790433,17.1116173 L8.77790433,17.1389522 C8.80523918,17.928246 9.18792711,19.428246 11.8052392,19.428246 C13.2129841,19.428246 14.7779043,19.0865604 14.7779043,17.5968109 C14.7779043,16.5 13.7015945,16.1958998 12.1879271,15.8405467 L10.6503417,15.498861 C8.34396355,14.9487472 6.15034169,14.4396355 6.15034169,11.3371298 C6.15034169,9.75854214 6.98405467,6.98405467 11.6173121,6.98405467 Z M111.177677,6.96013667 C115.534169,6.96013667 117.276765,9.78246014 117.430524,11.7164009 L114.464692,11.7164009 C114.464692,11.1560364 113.463554,9.40318907 111.362187,9.40318907 C109.26082,9.40318907 107.289294,10.8519362 107.289294,14.4908884 C107.289294,18.3587699 109.417995,19.3530752 111.444191,19.3530752 C112.110478,19.3530752 114.290433,19.0968109 114.905467,16.2471526 L111.59795,16.2471526 L111.59795,13.8792711 L117.468109,13.8792711 L117.468109,21.4886105 L115.489749,21.4886105 L115.182232,19.7084282 C114.440774,20.5728929 113.33713,21.8439636 110.740319,21.8439636 C107.306378,21.8439636 104.203872,19.404328 104.203872,14.4396355 C104.203872,10.571754 106.356492,6.92255125 111.177677,6.96013667 Z M53.6446469,7.3667426 L59.309795,17.214123 L59.3610478,17.214123 L59.3542141,7.3667426 L62.1252847,7.3667426 L62.1252847,21.5261959 L59.1492027,21.5261959 L53.3405467,11.4464692 L53.2892938,11.4464692 L53.2892938,21.5261959 L50.5216401,21.5261959 L50.5216401,7.3667426 L53.6446469,7.3667426 Z M98.405467,7.3667426 C102.198178,7.3667426 102.8918,10.1412301 102.8918,11.3610478 C102.8918,12.9123007 102.095672,14.261959 100.687927,14.7198178 C101.866743,15.2289294 102.481777,15.6628702 102.481777,18.3075171 C102.481777,20.357631 102.481777,20.8769932 103.124146,21.1332574 L103.124146,21.5261959 L99.8405467,21.5261959 C99.6355353,20.8633257 99.5330296,20.1252847 99.5330296,18.6765376 C99.5330296,16.73918 99.4066059,16.0045558 97.2027335,16.0045558 L94.1275626,16.0045558 L94.1275626,21.5261959 L91.2061503,21.5261959 L91.1924829,7.3667426 L98.405467,7.3667426 Z M139.308656,7.3667426 C143.101367,7.3667426 143.794989,10.1412301 143.794989,11.3610478 C143.794989,12.9123007 142.998861,14.261959 141.587699,14.7198178 C142.766515,15.2289294 143.384966,15.6628702 143.384966,18.3075171 L143.385293,18.770803 C143.389055,20.4390451 143.436082,20.8974943 144.023918,21.1332574 L144.023918,21.5261959 L140.743736,21.5261959 C140.538724,20.8633257 140.436219,20.1252847 140.436219,18.6765376 C140.436219,16.73918 140.306378,16.0045558 138.102506,16.0045558 L135.027335,16.0045558 L135.027335,21.5261959 L132.105923,21.5261959 L132.105923,7.3667426 L139.308656,7.3667426 Z M71.5831435,7.3667426 C75.0683371,7.3667426 75.9669704,9.52961276 75.9669704,10.9783599 C75.9669704,13.0284738 74.8120729,13.5751708 74.2243736,13.8792711 C75.9669704,14.5421412 76.428246,15.929385 76.428246,17.3166287 C76.4168682,18.4149957 75.9752335,19.465105 75.1981777,20.2414579 C74.3781321,21.0307517 73.6059226,21.5159453 70.6845103,21.5159453 L64.6605923,21.5159453 L64.6605923,7.3667426 L71.5831435,7.3667426 Z M30.3382688,7.37699317 L30.3382688,9.87129841 L26.0296128,9.87129841 L26.0296128,21.4886105 L23.0569476,21.4886105 L23.0569476,9.87129841 L18.7517084,9.87129841 L18.7517084,7.37699317 L30.3382688,7.37699317 Z M42.642369,7.33940774 L42.642369,9.86104784 L35.0808656,9.86104784 L35.0808656,12.8371298 L42.0273349,12.8371298 L42.0273349,15.3314351 L35.0808656,15.3314351 L35.0808656,18.9943052 L42.9738041,18.9943052 L42.9738041,21.4886105 L32.1560364,21.4886105 L32.1560364,7.33940774 L42.642369,7.33940774 Z M48.2050114,7.33940774 L48.2050114,21.4886105 L45.2323462,21.4886105 L45.2323462,7.33940774 L48.2050114,7.33940774 Z M89.142369,7.33940774 L89.142369,9.86104784 L81.5808656,9.86104784 L81.5808656,12.8371298 L88.5273349,12.8371298 L88.5273349,15.3314351 L81.5808656,15.3314351 L81.5808656,18.9943052 L89.4738041,18.9943052 L89.4738041,21.4886105 L78.6560364,21.4886105 L78.6560364,7.33940774 L89.142369,7.33940774 Z M130.028474,7.33940774 L130.028474,9.86104784 L122.46697,9.86104784 L122.46697,12.8371298 L129.41344,12.8371298 L129.41344,15.3314351 L122.46697,15.3314351 L122.46697,18.9943052 L130.359909,18.9943052 L130.359909,21.4886105 L119.542141,21.4886105 L119.542141,7.33940774 L130.028474,7.33940774 Z M71.2995444,15.2870159 L67.5068337,15.2870159 L67.5068337,19.0455581 L71.1731207,19.0455581 C72.6082005,19.0455581 73.452164,18.4100228 73.452164,16.9954442 C73.452164,15.7482916 72.3758542,15.2870159 71.2995444,15.2870159 Z M97.8314351,9.78246014 L94.1138952,9.78246014 L94.1138952,13.5751708 L97.6025057,13.5751708 C99.1400911,13.5751708 99.9088838,13.0421412 99.9088838,11.6412301 C99.9088838,10.9031891 99.5671982,9.78246014 97.8314351,9.78246014 Z M138.71754,9.78246014 L135,9.78246014 L135,13.5751708 L138.48861,13.5751708 C140.026196,13.5751708 140.794989,13.0421412 140.794989,11.6412301 C140.794989,10.9031891 140.453303,9.78246014 138.71754,9.78246014 Z M70.9407745,9.78929385 L67.523918,9.78929385 L67.5307517,12.8952164 L71.0193622,12.8952164 C72.1981777,12.8952164 73.1207289,12.4373576 73.1207289,11.3166287 C73.1207289,10.1958998 72.3006834,9.78929385 70.9407745,9.78929385 Z" id="Combined-Shape"></path>
                    <g id="g72" transform="translate(16.059226, 30.751708)" stroke-width="0.5">
                        <path d="M88.0797267,0.307517084 L88.0797267,3.8952164 C88.0797267,4.60592255 88.4384966,5.54897494 89.5660592,5.54897494 C90.6936219,5.54897494 91.0523918,4.60592255 91.0523918,3.8952164 L91.0523918,0.307517084 L91.8451025,0.307517084 L91.8451025,3.99430524 C91.8774622,4.83019525 91.4499695,5.61681798 90.73098,6.04438478 C90.0119905,6.47195158 89.1167111,6.47195158 88.3977216,6.04438478 C87.7266647,5.64532243 87.3095339,4.93348248 87.2832086,4.16073455 L87.2835991,0.307517084 L88.0797267,0.307517084 Z M75.4817768,0.840546697 L74.8291572,1.42482916 C74.5841557,1.0915105 74.1901755,0.900916206 73.7767654,0.91571754 C72.905467,0.91571754 72.6252847,1.45216401 72.6252847,1.80751708 C72.6252847,3.28359909 75.522779,2.39179954 75.522779,4.50341686 C75.522779,5.62414579 74.5968109,6.31093394 73.4726651,6.31093394 C72.7549113,6.35747171 72.0588462,6.05461338 71.6036446,5.4977221 L72.2357631,4.91343964 C72.5202288,5.32454965 72.993452,5.56373309 73.4931663,5.54897494 C74.0056948,5.54897494 74.6719818,5.20728929 74.6719818,4.58200456 C74.6719818,3.21526196 71.7744875,4.07289294 71.7744875,1.80751708 C71.7744875,1.12414579 72.3656036,0.177676538 73.7733485,0.177676538 C74.4153815,0.117657029 75.0482395,0.363205946 75.4817768,0.840546697 Z M4.06605923,0.840546697 L3.41685649,1.42482916 C3.17185502,1.0915105 2.77787486,0.900916206 2.36446469,0.91571754 C1.49316629,0.91571754 1.21298405,1.45216401 1.21298405,1.80751708 C1.21298405,3.28359909 4.1070615,2.39179954 4.1070615,4.50341686 C4.1070615,5.62414579 3.18451025,6.31093394 2.05694761,6.31093394 C1.33919377,6.35747171 0.643128627,6.05461338 0.187927107,5.4977221 L0.820045558,4.91343964 C1.10451128,5.32454965 1.57773444,5.56373309 2.07744875,5.54897494 C2.58997722,5.54897494 3.25626424,5.20728929 3.25626424,4.58200456 C3.25626424,3.21526196 0.358769932,4.07289294 0.358769932,1.80751708 C0.358769932,1.12414579 0.949886105,0.177676538 2.35763098,0.177676538 C3.00012222,0.114337791 3.63442239,0.360446257 4.06605923,0.840546697 Z M29.7748715,0.409874003 C30.9167428,-0.0627299235 32.2308784,0.199241516 33.1042384,1.07357955 C33.9775985,1.94791758 34.238099,3.26234551 33.7642174,4.40368724 C33.2903357,5.54502897 32.1754441,6.28839828 30.9396355,6.28701595 C30.1221175,6.31295827 29.3303267,5.99935017 28.7522869,5.4206631 C28.1742472,4.84197603 27.8615254,4.0498347 27.8883827,3.23234624 C27.8883835,1.9965369 28.6330001,0.88247793 29.7748715,0.409874003 Z M118.527322,5.26048223 C118.683142,5.41432978 118.730597,5.64706089 118.647453,5.84963421 C118.564309,6.05220754 118.367036,6.18449271 118.148064,6.18451025 C117.852554,6.18453393 117.611941,5.94696677 117.6082,5.65148064 C117.605429,5.43252574 117.73519,5.23358436 117.936688,5.14786634 C118.138186,5.06214833 118.371502,5.10663468 118.527322,5.26048223 Z M19.1343964,0.307517084 L19.1343964,1.04555809 L17.238041,1.04555809 L17.238041,6.15034169 L16.4555809,6.15034169 L16.4555809,1.04555809 L14.5592255,1.04555809 L14.5592255,0.307517084 L19.1343964,0.307517084 Z M117.539863,0.307517084 L117.539863,1.04555809 L115.643508,1.04555809 L115.643508,6.15034169 L114.840547,6.15034169 L114.840547,1.04555809 L112.944191,1.04555809 L112.944191,0.307517084 L117.539863,0.307517084 Z M12.4202733,0.341685649 L14.9316629,6.15034169 L14.0091116,6.15034169 L13.4077449,4.70159453 L10.6127563,4.70159453 L10.0216401,6.15034169 L9.09908884,6.15034169 L11.7027335,0.341685649 L12.4202733,0.341685649 Z M24.071754,0.307517084 L24.071754,1.04555809 L21.071754,1.04555809 L21.071754,2.77448747 L23.8667426,2.77448747 L23.8667426,3.51252847 L21.071754,3.51252847 L21.071754,5.3952164 L24.2255125,5.3952164 L24.2255125,6.15034169 L20.2756264,6.15034169 L20.2756264,0.307517084 L24.071754,0.307517084 Z M9.45785877,0.307517084 L9.45785877,1.04555809 L7.56150342,1.04555809 L7.56150342,6.15034169 L6.76879271,6.15034169 L6.76879271,1.04555809 L4.8690205,1.04555809 L4.8690205,0.307517084 L9.45785877,0.307517084 Z M80.9009112,0.307517084 L80.9009112,1.04555809 L79.0045558,1.04555809 L79.0045558,6.15034169 L78.2084282,6.15034169 L78.2084282,1.04555809 L76.3120729,1.04555809 L76.3120729,0.307517084 L80.9009112,0.307517084 Z M48.9703872,0.307517084 L48.9703872,2.73348519 L52.0216401,2.73348519 L52.0216401,0.307517084 L52.8177677,0.307517084 L52.8177677,6.11617312 L52.0216401,6.11617312 L52.0216401,3.44419134 L48.9703872,3.44419134 L48.9703872,6.15034169 L48.1776765,6.15034169 L48.1776765,0.307517084 L48.9703872,0.307517084 Z M58.3940774,0.307517084 L58.3940774,1.04555809 L55.3940774,1.04555809 L55.3940774,2.77448747 L58.1890661,2.77448747 L58.1890661,3.51252847 L55.3940774,3.51252847 L55.3940774,5.3952164 L58.547836,5.3952164 L58.547836,6.15034169 L54.6013667,6.15034169 L54.6013667,0.307517084 L58.3940774,0.307517084 Z M105.150342,0.307517084 L105.150342,1.04555809 L102.164009,1.04555809 L102.164009,2.77448747 L104.958998,2.77448747 L104.958998,3.51252847 L102.164009,3.51252847 L102.164009,5.3952164 L105.317768,5.3952164 L105.317768,6.15034169 L101.357631,6.15034169 L101.357631,0.307517084 L105.150342,0.307517084 Z M47.0125285,0.307517084 L47.0125285,1.04555809 L45.1025057,1.04555809 L45.1025057,6.15034169 L44.3063781,6.15034169 L44.3200456,1.04555809 L42.4236902,1.04555809 L42.4236902,0.307517084 L47.0125285,0.307517084 Z M39.143508,0.307517084 L39.143508,1.04555809 L36.2460137,1.04555809 L36.2460137,2.87699317 L38.952164,2.87699317 L38.952164,3.61503417 L36.2596811,3.61503417 L36.2596811,6.15034169 L35.4669704,6.15034169 L35.453303,0.307517084 L39.143508,0.307517084 Z M94.667426,0.307517084 L96.5364465,4.73234624 L96.5637813,4.73234624 L98.405467,0.307517084 L99.5842825,0.307517084 L99.5842825,6.11617312 L98.7915718,6.11617312 L98.7915718,1.3667426 L98.7642369,1.3667426 L96.7892938,6.15034169 L96.2528474,6.15034169 L94.2779043,1.3667426 L94.2539863,1.3667426 L94.2539863,6.15034169 L93.4578588,6.15034169 L93.4578588,0.341685649 L93.4886105,0.307517084 L94.667426,0.307517084 Z M84.071754,0.266514806 C85.5854214,0.266514806 85.9681093,1.15831435 85.9681093,1.89635535 C85.9703931,2.70969738 85.3440911,3.38670009 84.5330296,3.4476082 L84.5330296,3.4476082 L86.2004556,6.11958998 L85.1993166,6.11958998 L83.7129841,3.5501139 L82.8246014,3.5501139 L82.8246014,6.11958998 L82.0284738,6.11958998 L82.0216401,0.266514806 Z M66.2118451,0.307517084 L69.4441913,5.09111617 L69.4681093,5.09111617 L69.4681093,0.307517084 L70.2642369,0.307517084 L70.2642369,6.11617312 L69.2630979,6.11617312 L65.9829157,1.33257403 L65.9453303,1.33257403 L65.9453303,6.11617312 L65.1526196,6.11617312 L65.1628702,0.307517084 L66.2118451,0.307517084 Z M63.3656036,0.307517084 L63.3656036,6.11617312 L62.5728929,6.11617312 L62.5728929,0.307517084 L63.3656036,0.307517084 Z M107.764237,0.307517084 L110.996583,5.09111617 L111.020501,5.09111617 L111.020501,0.307517084 L111.816629,0.307517084 L111.816629,6.11617312 L110.81549,6.11617312 L107.535308,1.33257403 L107.507973,1.33257403 L107.507973,6.11617312 L106.715262,6.11617312 L106.715262,0.307517084 L107.764237,0.307517084 Z M30.9396355,0.91571754 C29.6070615,0.91571754 28.7357631,1.96127563 28.7357631,3.23234624 C28.7357631,4.50341686 29.6070615,5.54897494 30.9396355,5.54897494 C32.2722096,5.54897494 33.143508,4.50341686 33.143508,3.23234624 C33.143508,1.96127563 32.2722096,0.91571754 30.9396355,0.91571754 Z M12.023918,1.32232346 L11.9965831,1.32232346 L10.8929385,4.02164009 L13.1241458,4.02164009 L12.023918,1.32232346 Z M83.8735763,0.994305239 L82.8246014,0.994305239 L82.8246014,2.87699317 L83.8735763,2.87699317 C84.4886105,2.87699317 85.1309795,2.72323462 85.1309795,1.93394077 C85.1309795,1.14464692 84.5159453,0.994305239 83.8735763,0.994305239 L83.8735763,0.994305239 Z" id="Combined-Shape"></path>
                    </g>
                </g>
            </g>
        </g>
    </g>
</svg>