<?xml version="1.0" encoding="UTF-8"?>
<svg width="60px" height="39px" viewBox="0 0 60 39" version="1.1" xmlns="http://www.w3.org/2000/svg" xmlns:xlink="http://www.w3.org/1999/xlink">
    <title>Combined Shape</title>
    <g id="Page-1" stroke="none" stroke-width="1" fill="none" fill-rule="evenodd">
        <g id="D_Gibson---Home_R6" transform="translate(-245.000000, -6106.000000)" fill="#FFFFFF">
            <g id="Footer" transform="translate(-96.000000, 5443.000000)">
                <path d="M397.269298,663.000298 C398.098376,663.000298 398.168193,663.83933 398.168193,663.83933 L398.168193,663.83933 L398.168193,681.813938 C398.135993,682.707809 399.05144,682.740103 399.134799,682.723346 C400.061983,682.67521 399.998786,681.848974 399.998786,681.848974 L399.998786,681.848974 L399.998786,680.624852 L401,680.275407 L401,681.568991 C401,684.800123 397.428621,684.984936 397.08849,684.995211 L397.062555,684.995802 C395.659591,685.013167 395.231961,683.730855 395.231961,683.317432 L395.231961,683.317432 L395.231961,668.630406 C395.231961,668.630406 395.263259,667.861141 394.29906,667.861141 C393.319815,667.861141 393.401067,668.700478 393.401067,668.700478 L393.401067,668.700478 L393.401067,675.799349 L390.499744,676.77822 C390.603567,675.134887 389.532235,675.274726 389.532235,675.274726 C388.919229,675.27503 388.495812,676.114367 388.495812,676.114367 C387.600227,677.782074 385.04167,678.561697 385.04167,678.561697 L385.04167,678.561697 L383.003732,679.225855 C382.382299,679.401034 381.725356,679.471106 381.725356,679.471106 C379.831867,679.564636 378.996469,677.597145 378.996469,676.953095 L378.996469,676.953095 L378.996469,674.015568 C378.996469,672.616876 377.787309,672.96632 377.787309,672.96632 C377.787309,672.96632 377.350049,672.996786 376.509535,673.73589 C376.165264,674.070407 375.8875,673.980532 375.8875,673.980532 C375.555568,673.910156 375.076177,673.263668 374.989507,673.175926 C374.418349,672.417862 374.022207,672.344569 373.936902,672.337816 L373.91968,672.337198 C373.36656,672.301858 372.986779,672.861518 372.986779,672.861518 C372.504078,673.46779 372.657555,674.041159 372.952171,674.295245 C372.983168,674.316876 376.362678,676.838543 376.406615,676.883328 C377.177913,677.563328 377.321761,678.510819 377.304306,679.051285 C377.341021,680.881375 375.7909,681.532128 375.197454,681.778597 C375.068663,681.843004 373.906889,682.215946 372.708852,682.594019 L372.230066,682.744803 C371.040078,683.11885 369.946724,683.457576 369.946724,683.457576 C370.257591,681.988508 369.16399,681.918741 369.083339,681.918741 C368.640662,681.881877 368.288267,682.408633 368.288267,682.408633 C367.105287,684.242683 365.142884,685.039063 365.075776,685.066483 C364.653262,685.306859 359.515082,686.884996 359.515082,686.884996 C359.666561,685.499721 358.829231,685.387516 358.626091,685.380534 L358.582482,685.380587 C358.13198,685.345551 357.973688,685.579225 357.925839,685.660569 C357.877991,685.742827 356.822006,687.512594 356.786195,687.584189 C356.183721,688.619422 355.50812,688.318114 355.50812,688.318114 C355.50812,688.318114 354.959815,688.189243 354.333266,687.338938 C353.707019,686.488938 353.007343,686.948669 352.917363,687.02453 C351.462037,688.206304 351.051861,691.063096 351.051861,691.639817 L351.051861,691.639817 L351.051861,700.13799 L347.701843,701.221664 L347.701843,691.639817 C347.666934,690.101591 346.557985,690.460784 346.422865,690.521107 C346.288347,690.58143 344.247098,691.710193 344.247098,691.710193 C343.41802,692.164745 342.900109,692.164745 342.900109,692.164745 C341.138431,692.199781 341.034608,690.486071 341.034608,690.486071 L341.034608,690.486071 L341,673.421177 C341,670.798059 343.368366,669.869761 343.55615,669.784456 C343.650042,669.741804 344.830011,669.369586 346.121929,668.966788 L346.609743,668.814889 C347.751342,668.45984 348.885424,668.10999 349.359398,667.965639 C350.442767,667.635693 351.846633,668.943596 351.846633,670.378542 L351.846633,670.378542 L351.846633,674.610263 L348.185146,675.764009 L348.185146,672.092252 C348.185146,670.938202 347.143607,670.84132 346.872463,670.938202 C346.600718,671.035388 345.31843,671.497557 345.31843,671.497557 C344.065935,672.065747 343.970839,673.701159 343.970839,673.701159 L343.970839,673.701159 L343.970839,688.178275 C343.970839,689.079797 344.625914,689.152283 344.771486,689.157261 L344.799918,689.157451 C348.186049,689.157451 348.026252,683.977325 348.115931,682.828149 C348.12225,682.631339 348.150237,679.051285 348.150237,679.051285 L348.150237,679.051285 L351.059084,678.005389 L351.039824,684.515049 C351.044037,685.432074 351.452106,685.64625 351.644705,685.641375 C353.16082,685.719673 353.573704,680.375945 353.573704,679.925353 L353.573704,679.925353 L353.573704,677.232772 L356.543942,676.288633 L356.543942,682.932648 C356.650774,683.958131 357.828035,683.958131 358.167792,683.492307 C359.331812,681.878526 359.515082,677.687324 359.515082,677.687324 L359.515082,677.687324 L359.480474,664.783775 L362.520228,663.594384 L362.520228,663.594384 L362.520119,663.636475 C362.520082,663.650374 362.520038,663.66765 362.519984,663.688204 L362.519286,663.959045 C362.519185,663.998383 362.519077,664.040705 362.518961,664.085911 L362.518181,664.390981 C362.514592,665.7998 362.506851,668.888807 362.499597,672.121863 L362.497867,672.899775 C362.493008,675.107241 362.488545,677.324489 362.485936,679.068511 L362.485095,679.663611 C362.484969,679.759258 362.484849,679.85307 362.484737,679.94495 L362.484153,680.472254 C362.484071,680.556011 362.483998,680.637639 362.483932,680.717039 L362.483859,682.023311 C362.483922,682.066712 362.483996,682.107197 362.48408,682.144668 L362.484716,682.332542 C362.484972,682.382587 362.485273,682.41979 362.48562,682.443364 C362.48562,682.593257 362.697178,683.828347 363.970739,683.842056 C365.377193,683.817111 365.452776,682.565507 365.455868,682.36541 L365.455858,676.428776 C365.455858,675.204654 364.523859,675.344493 364.523859,675.344493 L364.523859,675.344493 L364.523859,673.631087 C365.214507,673.31607 366.008376,673.245998 366.008376,673.245998 C367.380343,673.186285 367.735748,674.844851 367.735748,675.134887 L367.735748,675.134887 L367.735748,679.051285 C367.735748,680.240067 368.724022,680.064887 368.841387,680.030461 C368.958752,679.99573 370.637974,679.401034 370.637974,679.401034 C371.535365,679.086321 371.811624,680.135264 371.811624,680.135264 C372.121588,680.939565 372.652439,680.958758 372.814042,680.939565 C373.644023,680.920067 374.053597,680.084386 374.091816,679.960694 C374.380413,679.235909 373.781551,678.806948 373.781551,678.806948 L373.781551,678.806948 L370.292199,676.148794 C369.42761,675.485855 369.428814,674.08564 369.428814,674.08564 C369.428814,672.057216 371.396934,671.428094 371.396934,671.428094 L371.396934,671.428094 L376.406615,669.749116 L376.406615,669.749116 L376.406956,669.895091 C376.407018,669.924375 376.407083,669.956962 376.407146,669.9918 L376.407089,670.634826 L376.407089,670.634826 L376.406615,670.69356 C376.440319,671.385747 377.124648,671.428094 377.270301,671.428094 C377.508341,671.428094 377.860737,671.262664 378.029863,671.078345 C379.446669,668.490263 382.485821,667.791069 382.485821,667.791069 L382.485821,667.791069 L382.451213,669.259833 C381.449097,669.329904 381.518914,670.343811 381.518914,670.343811 L381.518914,676.00865 C381.518914,677.372611 382.908636,677.428973 383.03864,677.407647 C384.463572,677.350676 384.558367,676.068668 384.558367,675.799349 L384.558367,675.799349 L384.558367,667.09218 L385.766925,666.846929 C387.105488,666.676624 387.521682,668.295585 387.494297,668.840316 C387.494119,668.867194 387.493967,668.912154 387.493839,668.97237 L387.493938,672.245005 C387.493966,672.29795 387.493993,672.348349 387.49402,672.395851 L387.494297,672.861518 C387.534021,673.931177 388.590607,673.782199 388.667947,673.770926 C389.793147,673.756607 390.430529,669.487718 390.430529,668.630406 L390.430529,668.630406 L390.430529,665.16856 L393.401067,664.189384 L393.401067,665.098183 C393.388729,665.944832 394.333668,665.832718 394.333668,665.832718 C395.128139,665.832718 395.335483,665.028416 395.922609,663.979778 C396.421155,663.087918 397.045155,663.004546 397.221138,662.999601 Z M354.756703,668.853342 C355.706773,668.853342 356.476734,669.623391 356.476734,670.573241 C356.476734,671.522297 355.706773,672.29261 354.756703,672.29261 C353.807163,672.29261 353.037467,671.522297 353.037467,670.573241 C353.037467,669.623391 353.807163,668.853342 354.756703,668.853342 Z" id="Combined-Shape"></path>
            </g>
        </g>
    </g>
</svg>